<svg aria-hidden="true" style="width:0;height:0;position:absolute;overflow:hidden" xmlns="http://www.w3.org/2000/svg"><defs><symbol id="icon-close" viewBox="0 0 32 32"><path d="m17.88 16 8.4-8.387a1.339 1.339 0 0 0-1.894-1.894l-8.387 8.4-8.387-8.4a1.339 1.339 0 0 0-1.894 1.894l8.4 8.387-8.4 8.387a1.333 1.333 0 0 0 0 1.894 1.333 1.333 0 0 0 1.894 0l8.387-8.4 8.387 8.4a1.333 1.333 0 0 0 1.894 0 1.333 1.333 0 0 0 0-1.894z"/></symbol><symbol id="icon-bars" viewBox="0 0 32 32"><path d="M4 10.667h24a1.333 1.333 0 0 0 0-2.666H4a1.333 1.333 0 0 0 0 2.666zm24 10.666H4a1.333 1.333 0 0 0 0 2.666h24a1.333 1.333 0 0 0 0-2.666zm0-6.666H4a1.333 1.333 0 0 0 0 2.666h24a1.333 1.333 0 0 0 0-2.666z"/></symbol></defs></svg>